<svg width="25" height="25" viewBox="0 0 25 25" fill="none" xmlns="http://www.w3.org/2000/svg">
<g clip-path="url(#clip0_611_1405)">
<path d="M24.6235 15.5238C22.9539 22.2203 16.1715 26.2957 9.47425 24.6258C2.77972 22.9562 -1.29567 16.1734 0.374643 9.47733C2.04339 2.78007 8.82582 -1.29571 15.5211 0.373817C22.218 2.04335 26.293 8.82694 24.6235 15.5238Z" fill="url(#paint0_linear_611_1405)"/>
<path d="M18.0082 10.7191C18.257 9.05586 16.9906 8.16172 15.2589 7.56523L15.8207 5.31211L14.4492 4.97031L13.9023 7.16406C13.5417 7.07422 13.1714 6.98945 12.8035 6.90547L13.3542 4.69727L11.9835 4.35547L11.4214 6.60781C11.123 6.53984 10.83 6.47266 10.5457 6.40195L10.5472 6.39492L8.65581 5.92266L8.29097 7.3875C8.29097 7.3875 9.30854 7.6207 9.28706 7.63515C9.84253 7.77383 9.94292 8.1414 9.92612 8.43281L9.28628 10.9996C9.32456 11.0094 9.37417 11.0234 9.42886 11.0453C9.38315 11.034 9.33433 11.0215 9.28393 11.0094L8.38706 14.6051C8.31909 14.7738 8.14683 15.0269 7.75854 14.9309C7.77222 14.9508 6.76167 14.682 6.76167 14.682L6.08081 16.2519L7.86558 16.6969C8.19761 16.7801 8.523 16.8672 8.84331 16.9492L8.27573 19.2281L9.64565 19.5699L10.2078 17.3152C10.582 17.4168 10.9453 17.5105 11.3007 17.5988L10.7406 19.843L12.1121 20.1848L12.6796 17.9101C15.0183 18.3527 16.7769 18.1742 17.5171 16.059C18.1136 14.3559 17.4875 13.3734 16.257 12.7328C17.1531 12.5262 17.8281 11.9367 18.0082 10.7191ZM14.8746 15.1133C14.4507 16.8164 11.5832 15.8957 10.6535 15.6648L11.4066 12.6457C12.3363 12.8777 15.3175 13.3371 14.8746 15.1133ZM15.2988 10.6945C14.9121 12.2437 12.5253 11.4566 11.7511 11.2637L12.4339 8.52539C13.2082 8.71836 15.7015 9.07851 15.2988 10.6945Z" fill="white"/>
</g>
<defs>
<linearGradient id="paint0_linear_611_1405" x1="0.000244141" y1="-0.000244141" x2="0.000244141" y2="25" gradientUnits="userSpaceOnUse">
<stop stop-color="#F9AA4B"/>
<stop offset="1" stop-color="#F7931A"/>
</linearGradient>
<clipPath id="clip0_611_1405">
<rect width="25" height="25" fill="white"/>
</clipPath>
</defs>
</svg>
