<svg width="201" height="29" viewBox="0 0 201 29" fill="none" xmlns="http://www.w3.org/2000/svg">
<path d="M10.6121 21.9199C8.59609 21.9199 6.85542 21.4813 5.39009 20.6039C3.93409 19.7266 2.80942 18.4993 2.01609 16.9219C1.23209 15.3446 0.840088 13.5106 0.840088 11.4199C0.840088 9.32926 1.23209 7.49525 2.01609 5.91792C2.80942 4.34059 3.93409 3.11325 5.39009 2.23592C6.85542 1.35859 8.59609 0.919922 10.6121 0.919922C12.9268 0.919922 14.8681 1.49392 16.4361 2.64192C18.0134 3.78992 19.1241 5.34392 19.7681 7.30392L15.9321 8.36792C15.5588 7.14526 14.9288 6.19792 14.0421 5.52592C13.1554 4.84459 12.0121 4.50392 10.6121 4.50392C9.33342 4.50392 8.26476 4.78859 7.40609 5.35792C6.55676 5.92725 5.91742 6.72992 5.48809 7.76592C5.05875 8.80192 4.84409 10.0199 4.84409 11.4199C4.84409 12.8199 5.05875 14.0379 5.48809 15.0739C5.91742 16.1099 6.55676 16.9126 7.40609 17.4819C8.26476 18.0513 9.33342 18.3359 10.6121 18.3359C12.0121 18.3359 13.1554 17.9953 14.0421 17.3139C14.9288 16.6326 15.5588 15.6853 15.9321 14.4719L19.7681 15.5359C19.1241 17.4959 18.0134 19.0499 16.4361 20.1979C14.8681 21.3459 12.9268 21.9199 10.6121 21.9199Z" fill="#2702FF"/>
<path d="M23.2707 21.4999V6.37992H26.6307V10.0759L26.2667 9.59992C26.4627 9.07726 26.724 8.60125 27.0507 8.17192C27.3774 7.74259 27.7787 7.38792 28.2547 7.10792C28.6187 6.88392 29.0154 6.71125 29.4447 6.58992C29.874 6.45925 30.3174 6.37992 30.7747 6.35192C31.232 6.31459 31.6894 6.32392 32.1467 6.37992V9.93592C31.7267 9.80525 31.2367 9.76325 30.6767 9.80992C30.126 9.84725 29.6267 9.97326 29.1787 10.1879C28.7307 10.3933 28.3527 10.6686 28.0447 11.0139C27.7367 11.3499 27.5034 11.7513 27.3447 12.2179C27.186 12.6753 27.1067 13.1933 27.1067 13.7719V21.4999H23.2707Z" fill="#2702FF"/>
<path d="M36.6149 28.2199L39.5269 20.2119L39.5829 22.5639L33.0029 6.37992H36.9509L41.3749 17.8319H40.4789L44.8749 6.37992H48.6829L40.1429 28.2199H36.6149Z" fill="#2702FF"/>
<path d="M58.4916 21.9199C56.989 21.9199 55.7337 21.5699 54.7257 20.8699C53.7177 20.1699 52.957 19.2179 52.4436 18.0139C51.9396 16.8099 51.6876 15.4519 51.6876 13.9399C51.6876 12.4279 51.9396 11.0699 52.4436 9.86592C52.9477 8.66192 53.6896 7.70992 54.6696 7.00992C55.6496 6.30992 56.8583 5.95992 58.2957 5.95992C59.7423 5.95992 61.0023 6.30526 62.0756 6.99592C63.149 7.68659 63.9797 8.63392 64.5677 9.83792C65.165 11.0326 65.4637 12.3999 65.4637 13.9399C65.4637 15.4519 65.1696 16.8099 64.5816 18.0139C64.003 19.2179 63.191 20.1699 62.1456 20.8699C61.1003 21.5699 59.8823 21.9199 58.4916 21.9199ZM51.0436 28.2199V6.37992H54.4036V16.7399H54.8797V28.2199H51.0436ZM57.8756 18.5319C58.697 18.5319 59.369 18.3266 59.8916 17.9159C60.4143 17.5053 60.8017 16.9546 61.0536 16.2639C61.3056 15.5639 61.4316 14.7893 61.4316 13.9399C61.4316 13.0999 61.301 12.3346 61.0396 11.6439C60.7783 10.9439 60.3723 10.3886 59.8216 9.97792C59.2803 9.55792 58.585 9.34792 57.7356 9.34792C56.9423 9.34792 56.2983 9.53925 55.8036 9.92192C55.3183 10.3046 54.9636 10.8413 54.7396 11.5319C54.5156 12.2226 54.4036 13.0253 54.4036 13.9399C54.4036 14.8546 54.5156 15.6573 54.7396 16.3479C54.9636 17.0386 55.3276 17.5753 55.8316 17.9579C56.345 18.3406 57.0263 18.5319 57.8756 18.5319Z" fill="#2702FF"/>
<path d="M78.0363 21.4999C76.991 21.6959 75.9643 21.7799 74.9563 21.7519C73.9576 21.7333 73.0616 21.5606 72.2683 21.2339C71.4843 20.8979 70.887 20.3613 70.4763 19.6239C70.103 18.9333 69.907 18.2333 69.8883 17.5239C69.8696 16.8053 69.8603 15.9933 69.8603 15.0879V2.17992H73.6683V14.8639C73.6683 15.4519 73.673 15.9839 73.6823 16.4599C73.701 16.9266 73.799 17.2999 73.9763 17.5799C74.3123 18.1119 74.849 18.4013 75.5863 18.4479C76.3236 18.4946 77.1403 18.4573 78.0363 18.3359V21.4999ZM67.2843 9.31992V6.37992H78.0363V9.31992H67.2843Z" fill="#2702FF"/>
<path d="M87.8094 21.9199C86.2881 21.9199 84.9534 21.5793 83.8054 20.8979C82.6574 20.2166 81.7614 19.2786 81.1174 18.0839C80.4827 16.8799 80.1654 15.4986 80.1654 13.9399C80.1654 12.3626 80.4921 10.9766 81.1454 9.78192C81.7987 8.57792 82.6994 7.63992 83.8474 6.96792C84.9954 6.29592 86.3161 5.95992 87.8094 5.95992C89.3307 5.95992 90.6654 6.30059 91.8134 6.98192C92.9707 7.66325 93.8714 8.60592 94.5154 9.80992C95.1594 11.0046 95.4814 12.3813 95.4814 13.9399C95.4814 15.5079 95.1547 16.8939 94.5014 18.0979C93.8574 19.2926 92.9567 20.2306 91.7994 20.9119C90.6514 21.5839 89.3214 21.9199 87.8094 21.9199ZM87.8094 18.3639C89.0321 18.3639 89.9421 17.9533 90.5394 17.1319C91.1461 16.3013 91.4494 15.2373 91.4494 13.9399C91.4494 12.5959 91.1414 11.5226 90.5254 10.7199C89.9187 9.91725 89.0134 9.51592 87.8094 9.51592C86.9787 9.51592 86.2974 9.70259 85.7654 10.0759C85.2334 10.4493 84.8367 10.9673 84.5754 11.6299C84.3234 12.2926 84.1974 13.0626 84.1974 13.9399C84.1974 15.2933 84.5007 16.3713 85.1074 17.1739C85.7234 17.9673 86.6241 18.3639 87.8094 18.3639Z" fill="#2702FF"/>
<path d="M105.006 21.4999V1.33992H108.422L115.086 14.7239L121.75 1.33992H125.166V21.4999H121.61V9.45992L115.758 21.4999H114.414L108.562 9.45992V21.4999H105.006Z" fill="#2702FF"/>
<path d="M133.715 21.9199C132.633 21.9199 131.713 21.7146 130.957 21.3039C130.211 20.8839 129.641 20.3286 129.249 19.6379C128.867 18.9379 128.675 18.1679 128.675 17.3279C128.675 16.6279 128.783 15.9886 128.997 15.4099C129.212 14.8313 129.557 14.3226 130.033 13.8839C130.519 13.4359 131.167 13.0626 131.979 12.7639C132.539 12.5586 133.207 12.3766 133.981 12.2179C134.756 12.0593 135.633 11.9099 136.613 11.7699C137.593 11.6206 138.671 11.4573 139.847 11.2799L138.475 12.0359C138.475 11.1399 138.261 10.4819 137.831 10.0619C137.402 9.64192 136.683 9.43192 135.675 9.43192C135.115 9.43192 134.532 9.56726 133.925 9.83792C133.319 10.1086 132.894 10.5893 132.651 11.2799L129.207 10.1879C129.59 8.93725 130.309 7.91992 131.363 7.13592C132.418 6.35192 133.855 5.95992 135.675 5.95992C137.01 5.95992 138.195 6.16525 139.231 6.57592C140.267 6.98659 141.051 7.69592 141.583 8.70392C141.882 9.26392 142.059 9.82392 142.115 10.3839C142.171 10.9439 142.199 11.5693 142.199 12.2599V21.4999H138.867V18.3919L139.343 19.0359C138.606 20.0533 137.808 20.7906 136.949 21.2479C136.1 21.6959 135.022 21.9199 133.715 21.9199ZM134.527 18.9239C135.227 18.9239 135.815 18.8026 136.291 18.5599C136.777 18.3079 137.159 18.0233 137.439 17.7059C137.729 17.3886 137.925 17.1226 138.027 16.9079C138.223 16.4973 138.335 16.0213 138.363 15.4799C138.401 14.9293 138.419 14.4719 138.419 14.1079L139.539 14.3879C138.41 14.5746 137.495 14.7333 136.795 14.8639C136.095 14.9853 135.531 15.0973 135.101 15.1999C134.672 15.3026 134.294 15.4146 133.967 15.5359C133.594 15.6853 133.291 15.8486 133.057 16.0259C132.833 16.1939 132.665 16.3806 132.553 16.5859C132.451 16.7913 132.399 17.0199 132.399 17.2719C132.399 17.6173 132.483 17.9159 132.651 18.1679C132.829 18.4106 133.076 18.5973 133.393 18.7279C133.711 18.8586 134.089 18.9239 134.527 18.9239Z" fill="#2702FF"/>
<path d="M146.26 21.4999V6.37992H149.62V10.0759L149.256 9.59992C149.452 9.07726 149.713 8.60125 150.04 8.17192C150.366 7.74259 150.768 7.38792 151.244 7.10792C151.608 6.88392 152.004 6.71125 152.434 6.58992C152.863 6.45925 153.306 6.37992 153.764 6.35192C154.221 6.31459 154.678 6.32392 155.136 6.37992V9.93592C154.716 9.80525 154.226 9.76325 153.666 9.80992C153.115 9.84725 152.616 9.97326 152.168 10.1879C151.72 10.3933 151.342 10.6686 151.034 11.0139C150.726 11.3499 150.492 11.7513 150.334 12.2179C150.175 12.6753 150.096 13.1933 150.096 13.7719V21.4999H146.26Z" fill="#2702FF"/>
<path d="M158.191 21.4999L158.219 1.33992H162.083V13.6599L167.207 6.37992H171.911L166.451 13.9399L172.275 21.4999H167.319L162.083 14.2199V21.4999H158.191Z" fill="#2702FF"/>
<path d="M180.842 21.9199C179.293 21.9199 177.926 21.5886 176.74 20.9259C175.564 20.2539 174.64 19.3346 173.968 18.1679C173.306 16.9919 172.974 15.6479 172.974 14.1359C172.974 12.4839 173.301 11.0466 173.954 9.82392C174.608 8.60125 175.508 7.65392 176.656 6.98192C177.804 6.30059 179.125 5.95992 180.618 5.95992C182.205 5.95992 183.554 6.33325 184.664 7.07992C185.775 7.82659 186.596 8.87659 187.128 10.2299C187.66 11.5833 187.847 13.1746 187.688 15.0039H183.922V13.6039C183.922 12.0639 183.675 10.9579 183.18 10.2859C182.695 9.60459 181.897 9.26392 180.786 9.26392C179.489 9.26392 178.532 9.66059 177.916 10.4539C177.31 11.2379 177.006 12.3999 177.006 13.9399C177.006 15.3493 177.31 16.4413 177.916 17.2159C178.532 17.9813 179.433 18.3639 180.618 18.3639C181.365 18.3639 182.004 18.2006 182.536 17.8739C183.068 17.5473 183.474 17.0759 183.754 16.4599L187.562 17.5519C186.993 18.9333 186.092 20.0066 184.86 20.7719C183.638 21.5373 182.298 21.9199 180.842 21.9199ZM175.83 15.0039V12.1759H185.854V15.0039H175.83Z" fill="#2702FF"/>
<path d="M200.342 21.4999C199.296 21.6959 198.27 21.7799 197.262 21.7519C196.263 21.7333 195.367 21.5606 194.574 21.2339C193.79 20.8979 193.192 20.3613 192.782 19.6239C192.408 18.9333 192.212 18.2333 192.194 17.5239C192.175 16.8053 192.166 15.9933 192.166 15.0879V2.17992H195.974V14.8639C195.974 15.4519 195.978 15.9839 195.988 16.4599C196.006 16.9266 196.104 17.2999 196.282 17.5799C196.618 18.1119 197.154 18.4013 197.892 18.4479C198.629 18.4946 199.446 18.4573 200.342 18.3359V21.4999ZM189.59 9.31992V6.37992H200.342V9.31992H189.59Z" fill="#2702FF"/>
</svg>
